/* XPM */
static char * C_xpm[] = {
"24 24 104 2",
"  	c #FFFFFF",
". 	c #E3E3E3",
"+ 	c #C3C3C3",
"@ 	c #9E9E9E",
"# 	c #858585",
"$ 	c #737373",
"% 	c #6E6E6E",
"& 	c #7C7C7C",
"* 	c #818181",
"= 	c #8D8D8D",
"- 	c #AAAAAA",
"; 	c #D9D9D9",
"> 	c #C0C0C0",
", 	c #757575",
"' 	c #262626",
") 	c #000000",
"! 	c #0D0D0D",
"~ 	c #161616",
"{ 	c #636363",
"] 	c #AFAFAF",
"^ 	c #F0F0F0",
"/ 	c #7F7F7F",
"( 	c #CFCFCF",
"_ 	c #FAFAFA",
": 	c #C1C1C1",
"< 	c #555555",
"[ 	c #3D3D3D",
"} 	c #707070",
"| 	c #9F9F9F",
"1 	c #B9B9B9",
"2 	c #ADADAD",
"3 	c #494949",
"4 	c #424242",
"5 	c #767676",
"6 	c #E6E6E6",
"7 	c #DCDCDC",
"8 	c #7A7A7A",
"9 	c #666666",
"0 	c #C8C8C8",
"a 	c #F4F4F4",
"b 	c #BBBBBB",
"c 	c #656565",
"d 	c #3B3B3B",
"e 	c #383838",
"f 	c #A6A6A6",
"g 	c #BCBCBC",
"h 	c #1C1C1C",
"i 	c #474747",
"j 	c #B8B8B8",
"k 	c #ACACAC",
"l 	c #606060",
"m 	c #EEEEEE",
"n 	c #B6B6B6",
"o 	c #2E2E2E",
"p 	c #D1D1D1",
"q 	c #9C9C9C",
"r 	c #E9E9E9",
"s 	c #454545",
"t 	c #E1E1E1",
"u 	c #969696",
"v 	c #7E7E7E",
"w 	c #DEDEDE",
"x 	c #B2B2B2",
"y 	c #2A2A2A",
"z 	c #BDBDBD",
"A 	c #B0B0B0",
"B 	c #D6D6D6",
"C 	c #686868",
"D 	c #535353",
"E 	c #A7A7A7",
"F 	c #4B4B4B",
"G 	c #D5D5D5",
"H 	c #CBCBCB",
"I 	c #5A5A5A",
"J 	c #5F5F5F",
"K 	c #9D9D9D",
"L 	c #4F4F4F",
"M 	c #EBEBEB",
"N 	c #727272",
"O 	c #D7D7D7",
"P 	c #222222",
"Q 	c #7D7D7D",
"R 	c #BEBEBE",
"S 	c #353535",
"T 	c #8F8F8F",
"U 	c #B1B1B1",
"V 	c #323232",
"W 	c #8A8A8A",
"X 	c #6D6D6D",
"Y 	c #8B8B8B",
"Z 	c #838383",
"` 	c #CDCDCD",
" .	c #E0E0E0",
"..	c #696969",
"+.	c #787878",
"@.	c #8C8C8C",
"#.	c #717171",
"$.	c #6C6C6C",
"%.	c #C7C7C7",
"&.	c #404040",
"*.	c #959595",
"=.	c #B3B3B3",
"-.	c #AEAEAE",
";.	c #B4B4B4",
"                                                ",
"            . + @ # $ % & * = - ;               ",
"          > , ' ) ) ) ) ) ! ) ~ { ] .           ",
"      ^ - { ) ) ) ! ~ ~ ! ! ) ) ) ' / ( _       ",
"    _ : < ) ) [ } | 1 > 2 , 3 4 ) ) ! 5 6       ",
"  _ 7 8 ) ! 9 0 _     a a     b c d ) e f _     ",
"  _ g h ! i j _       k l b     m # ' ) 9 a     ",
"  _ n o ~ [ p       q < ~ |       r s ) 3 t     ",
"    u e ~ v w     x [ 4 ) %         i ) y z     ",
"    c ) ' A _   B { C u ! D         c ) ! E     ",
"  t { ~ F G   H i I   - ! <         J ) ~ K     ",
"  t L ) * M   N , O   z P Q         % ) h 2     ",
"  R S ~ T             z ~ &         N ) y E     ",
"  A o ! @             f ~ ,         9 ! ~ U     ",
"  A [ ! @             b ! Q         [ ) V 1     ",
"  > ' ! W             b ! 9       _ e ) e p     ",
"  p y ) X .           B l @       x e ) s .     ",
"  . / ) P j _                 _ M C ~ ! Y ^     ",
"    ] 4 ) d Z 2 ` . _ a m 6 ( b i P ) F 0       ",
"     .l ) P ) h ' ..+.C % % F ) ! ) ! @.a       ",
"    ^ ] % ) e h ~ ) ) ! P P y V ~ ) #.`         ",
"      _ : $.h h o P P d P ) [ h ! v >           ",
"        ^ %.= { d ) ) ) d d ) &.*.`             ",
"          _ M G > =.-.=.j j ;.%..               "};
