/* XPM */
static char * E_xpm[] = {
"24 24 58 1",
" 	c #FFFFFF",
".	c #BBBBBB",
"+	c #E1E1E1",
"@	c #D7D7D7",
"#	c #747474",
"$	c #393939",
"%	c #B2B2B2",
"&	c #707070",
"*	c #181818",
"=	c #656565",
"-	c #CBCBCB",
";	c #898989",
">	c #111111",
",	c #555555",
"'	c #F4F4F4",
")	c #999999",
"!	c #282828",
"~	c #ABABAB",
"{	c #CDCDCD",
"]	c #050505",
"^	c #9F9F9F",
"/	c #5F5F5F",
"(	c #ADADAD",
"_	c #969696",
":	c #838383",
"<	c #6F6F6F",
"[	c #878787",
"}	c #818181",
"|	c #767676",
"1	c #3E3E3E",
"2	c #505050",
"3	c #8D8D8D",
"4	c #1E1E1E",
"5	c #BDBDBD",
"6	c #5A5A5A",
"7	c #BABABA",
"8	c #454545",
"9	c #8A8A8A",
"0	c #333333",
"a	c #C2C2C2",
"b	c #DEDEDE",
"c	c #434343",
"d	c #9D9D9D",
"e	c #7E7E7E",
"f	c #C5C5C5",
"g	c #909090",
"h	c #7D7D7D",
"i	c #737373",
"j	c #FEFEFE",
"k	c #919191",
"l	c #929292",
"m	c #E9E9E9",
"n	c #414141",
"o	c #B1B1B1",
"p	c #B5B5B5",
"q	c #545454",
"r	c #2C2C2C",
"s	c #A6A6A6",
"                        ",
"                        ",
"  ..+                   ",
"  @#$+                  ",
"  %&*=+          -@+    ",
"   ;>>,'        )!>~    ",
"    {]>;       ^>]/     ",
"     (]]_'   ':>]<      ",
"      [>]}' '|>>_       ",
"       #]>1&2]>&        ",
"        2>]]]*3'        ",
"        '4]]];          ",
"        5$]]]67         ",
"       '1$*,]>89        ",
"       04>a b>>>;       ",
"      |4*{   +c]]5      ",
"     d*>e     fg]>@     ",
"    h>*ij      kl]>m    ",
"   a!>9'        .2>n    ",
"  .o>p          @qrs+   ",
"    +              +    ",
"                        ",
"                        ",
"                        "};
