/* XPM */
static char * NV_xpm[] = {
"24 24 156 2",
"  	c #FFFFFF",
". 	c #9CC4FC",
"+ 	c #6FAAF1",
"@ 	c #3C99EA",
"# 	c #38A6F6",
"$ 	c #38A9F7",
"% 	c #3CB3FD",
"& 	c #4DA3E8",
"* 	c #3D7BB7",
"= 	c #57B9F9",
"- 	c #88C7FF",
"; 	c #8DD2FF",
"> 	c #5191E5",
", 	c #317BDE",
"' 	c #338BE6",
") 	c #3491EA",
"! 	c #379EF1",
"~ 	c #43ABF6",
"{ 	c #173493",
"] 	c #121864",
"^ 	c #52B2EF",
"/ 	c #5FCFFE",
"( 	c #5E6CCA",
"_ 	c #869DF3",
": 	c #2D6BD4",
"< 	c #2E70D7",
"[ 	c #3184E2",
"} 	c #379AEF",
"| 	c #3AAEF9",
"1 	c #64C8FE",
"2 	c #66D0FF",
"3 	c #0A36BC",
"4 	c #092C9A",
"5 	c #8FA4FD",
"6 	c #3976D9",
"7 	c #2B64D0",
"8 	c #6EC9FD",
"9 	c #73D2FF",
"0 	c #0F40CB",
"a 	c #123ABC",
"b 	c #6D71D5",
"c 	c #A49FFE",
"d 	c #84A5FB",
"e 	c #4A78D8",
"f 	c #3A72D9",
"g 	c #4183E3",
"h 	c #4F96EE",
"i 	c #5EA8F7",
"j 	c #6CBBFC",
"k 	c #7BCBFE",
"l 	c #84D2FF",
"m 	c #164BD7",
"n 	c #5E66E1",
"o 	c #AD93F6",
"p 	c #AC9CFE",
"q 	c #9CA2FE",
"r 	c #8896F6",
"s 	c #80ADFE",
"t 	c #76A8F9",
"u 	c #80B7FE",
"v 	c #93D2FF",
"w 	c #439BEC",
"x 	c #1F5CEF",
"y 	c #3860EC",
"z 	c #8E79F4",
"A 	c #BB95FE",
"B 	c #B39AFE",
"C 	c #94A7FE",
"D 	c #97BDFE",
"E 	c #A2D4FF",
"F 	c #9CD4FF",
"G 	c #67ACEF",
"H 	c #3E67A6",
"I 	c #6CBCEB",
"J 	c #6977FC",
"K 	c #CC94FD",
"L 	c #D091FE",
"M 	c #CD9CFD",
"N 	c #D2A5FE",
"O 	c #C29EFB",
"P 	c #B89DFE",
"Q 	c #A2A0FE",
"R 	c #9EB0FE",
"S 	c #B4D4FF",
"T 	c #AAD4FF",
"U 	c #90C6F9",
"V 	c #162788",
"W 	c #5F9BD2",
"X 	c #7C6BDF",
"Y 	c #CEADF9",
"Z 	c #DAB4FF",
"` 	c #C2A7FD",
" .	c #A8A0FE",
"..	c #B6C8FF",
"+.	c #87B7F8",
"@.	c #235AC7",
"#.	c #5E97DE",
"$.	c #827CF4",
"%.	c #4648D8",
"&.	c #2F35CE",
"*.	c #B8A8FD",
"=.	c #DCBBFF",
"-.	c #D5B3FE",
";.	c #B5B7FF",
">.	c #99C2F6",
",.	c #79BDFD",
"'.	c #553BCA",
").	c #6968F1",
"!.	c #646AF2",
"~.	c #B6C4FE",
"{.	c #C4A5EE",
"].	c #6947C7",
"^.	c #7174F6",
"/.	c #9388F6",
"(.	c #CB8FFC",
"_.	c #C393FD",
":.	c #5461D8",
"<.	c #E0C3FF",
"[.	c #9B6AE5",
"}.	c #784FCF",
"|.	c #6D46BA",
"1.	c #855DC5",
"2.	c #AB84F4",
"3.	c #7A38DB",
"4.	c #7141E2",
"5.	c #5E5AEC",
"6.	c #B180F1",
"7.	c #472DBC",
"8.	c #3F26B0",
"9.	c #3A20A2",
"0.	c #341B92",
"a.	c #7651B4",
"b.	c #C48AF7",
"c.	c #A560EE",
"d.	c #9833E7",
"e.	c #8E40EB",
"f.	c #DEC1FF",
"g.	c #9773E7",
"h.	c #8969E1",
"i.	c #8963DF",
"j.	c #845ADB",
"k.	c #7953D6",
"l.	c #7049CF",
"m.	c #603BC2",
"n.	c #D9A9FB",
"o.	c #AF4BEF",
"p.	c #7C47BB",
"q.	c #8455D8",
"r.	c #A47DF1",
"s.	c #AA85F2",
"t.	c #936CE4",
"u.	c #784DD5",
"v.	c #E7AAFC",
"w.	c #5C2A97",
"x.	c #9760D8",
"y.	c #A17BEC",
"                                                ",
"                                                ",
"                                                ",
"                  . + @ # $ %     & * =         ",
"              - ; > , ' ) ! # % ~ { ] ^ /       ",
"            ( _ - : < , [ ) } # | ~ & 1 2       ",
"          3 4 ( 5 6 7 : , [ ' ! ~ = 8 9         ",
"        0 0 a b c d e f f g h i j k l 8         ",
"        m m n o p c q r d s t u v v l w         ",
"      x y z A A B p c q q C D E F v G [ @ H I   ",
"      J K L M N O P p c Q R S T E U f , [ V W   ",
"    K N o X Y Z Z Z ` B  ...S T T +.@.: 6 #.8   ",
"  M O $.%.&.*.=.=.=.-.A B ;.S S S >.e e +.,.j   ",
"  Y '.).!.!.` =.=.=.N A P B *.~...T >.+.t       ",
"  {.].).^./.=.=.=.Z L (._.P B p c q r :.a       ",
"    -.*.^.=.=.=.Z L L (._._.B B B /.'.%.        ",
"        *.<.=.N K [.}.|.|.1._.A 2.3.4.5.        ",
"        <.=.M 6.}.'.7.8.9.0.a.b.c.d.e.          ",
"        f.K 6.g.h.i.j.k.l.m.9.n.b.o.            ",
"      <.M p.q.r.s.g.t.j.k.u.l.v.v.              ",
"        b.w.x.b.2.y.g.i.j.j.b.v.                ",
"                                                ",
"                                                ",
"                                                "};
