/* XPM */
static char * P_xpm[] = {
"24 24 67 1",
" 	c #FFFFFF",
".	c #F8F8F8",
"+	c #F6F6F6",
"@	c #F1F1F1",
"#	c #F2F2F2",
"$	c #FCFCFC",
"%	c #FDFDFD",
"&	c #222222",
"*	c #2A2A2A",
"=	c #3D3D3D",
"-	c #323232",
";	c #424242",
">	c #2E2E2E",
",	c #454545",
"'	c #5D5D5D",
")	c #F4F4F4",
"!	c #FEFEFE",
"~	c #000000",
"{	c #161616",
"]	c #F0F0F0",
"^	c #F7F7F7",
"/	c #E3E3E3",
"(	c #EAEAEA",
"_	c #E5E5E5",
":	c #E7E7E7",
"<	c #EBEBEB",
"[	c #EEEEEE",
"}	c #ECECEC",
"|	c #949494",
"1	c #B4B4B4",
"2	c #9E9E9E",
"3	c #979797",
"4	c #EFEFEF",
"5	c #0D0D0D",
"6	c #474747",
"7	c #1C1C1C",
"8	c #3B3B3B",
"9	c #4B4B4B",
"0	c #F9F9F9",
"a	c #262626",
"b	c #555555",
"c	c #FAFAFA",
"d	c #FBFBFB",
"e	c #717171",
"f	c #383838",
"g	c #515151",
"h	c #777777",
"i	c #F3F3F3",
"j	c #D7D7D7",
"k	c #C5C5C5",
"l	c #E4E4E4",
"m	c #404040",
"n	c #494949",
"o	c #353535",
"p	c #D2D2D2",
"q	c #CCCCCC",
"r	c #DCDCDC",
"s	c #959595",
"t	c #E9E9E9",
"u	c #727272",
"v	c #A0A0A0",
"w	c #ADADAD",
"x	c #626262",
"y	c #4D4D4D",
"z	c #7C7C7C",
"A	c #CDCDCD",
"B	c #9D9D9D",
"                        ",
"       .++ @#+$%        ",
"      .&*=-;>,')!$      ",
"      @~~~~{~~~]        ",
"      ^~~!^~+@~+        ",
"      ]~~)/~(_~:        ",
"      <&~~~~~~~[        ",
"      }{~|123~~^        ",
"      4{54.%.55)        ",
"      )67~~~789/        ",
"        0[;abc.[        ",
"%de*75{55{~5555557ffg#)c",
"!+h~~~~~~~~~~~~~~~~~~@!i",
"$.[5~~~~~~~~{{57*==7j  +",
"         &~58           ",
"        )&~~9           ",
"       k{55~5>)         ",
"      l5~{5555m         ",
"      n55*-f7~~o        ",
"     p5~5q rs7~~bc      ",
"     ;~5-    t5~5uc     ",
"    v{~{w     j~~7x     ",
"   !n~~*!      y~~{     ",
"   ({~~z       A&~*B    "};
