/* XPM */
static char * W_xpm[] = {
"24 24 146 2",
"  	c #FDFDFD",
". 	c #EEEEEE",
"+ 	c #DADADA",
"@ 	c #909090",
"# 	c #565656",
"$ 	c #FBFBFB",
"% 	c #FAFAFA",
"& 	c #000000",
"* 	c #8A8A8A",
"= 	c #FFFFFF",
"- 	c #DEDEDE",
"; 	c #878787",
"> 	c #424242",
", 	c #F9F9F9",
"' 	c #535353",
") 	c #6C6C6C",
"! 	c #CECECE",
"~ 	c #F8F8F8",
"{ 	c #B7B7B7",
"] 	c #E7E7E7",
"^ 	c #E2E2E2",
"/ 	c #A7A7A7",
"( 	c #4D4D4D",
"_ 	c #707070",
": 	c #FCFCFC",
"< 	c #DCDCDC",
"[ 	c #979797",
"} 	c #323232",
"| 	c #494949",
"1 	c #161616",
"2 	c #F0F0F0",
"3 	c #F2F2F2",
"4 	c #5D5D5D",
"5 	c #A3A3A3",
"6 	c #E1E1E1",
"7 	c #EDEDED",
"8 	c #555555",
"9 	c #787878",
"0 	c #B9B9B9",
"a 	c #E8E8E8",
"b 	c #F7F7F7",
"c 	c #4B4B4B",
"d 	c #353535",
"e 	c #3B3B3B",
"f 	c #949494",
"g 	c #DDDDDD",
"h 	c #7C7C7C",
"i 	c #DFDFDF",
"j 	c #515151",
"k 	c #2A2A2A",
"l 	c #F6F6F6",
"m 	c #929292",
"n 	c #B6B6B6",
"o 	c #7D7D7D",
"p 	c #E9E9E9",
"q 	c #FEFEFE",
"r 	c #636363",
"s 	c #262626",
"t 	c #D4D4D4",
"u 	c #ECECEC",
"v 	c #474747",
"w 	c #6D6D6D",
"x 	c #F3F3F3",
"y 	c #BBBBBB",
"z 	c #2E2E2E",
"A 	c #8B8B8B",
"B 	c #C5C5C5",
"C 	c #3D3D3D",
"D 	c #868686",
"E 	c #CBCBCB",
"F 	c #C4C4C4",
"G 	c #A9A9A9",
"H 	c #EAEAEA",
"I 	c #383838",
"J 	c #F4F4F4",
"K 	c #656565",
"L 	c #7A7A7A",
"M 	c #919191",
"N 	c #626262",
"O 	c #C2C2C2",
"P 	c #EFEFEF",
"Q 	c #E5E5E5",
"R 	c #F5F5F5",
"S 	c #D0D0D0",
"T 	c #C6C6C6",
"U 	c #858585",
"V 	c #B5B5B5",
"W 	c #777777",
"X 	c #F1F1F1",
"Y 	c #9D9D9D",
"Z 	c #BDBDBD",
"` 	c #C0C0C0",
" .	c #ACACAC",
"..	c #E3E3E3",
"+.	c #EBEBEB",
"@.	c #4F4F4F",
"#.	c #808080",
"$.	c #AFAFAF",
"%.	c #E4E4E4",
"&.	c #404040",
"*.	c #959595",
"=.	c #D5D5D5",
"-.	c #717171",
";.	c #585858",
">.	c #222222",
",.	c #767676",
"'.	c #DBDBDB",
").	c #838383",
"!.	c #5C5C5C",
"~.	c #D2D2D2",
"{.	c #CDCDCD",
"].	c #9F9F9F",
"^.	c #1C1C1C",
"/.	c #989898",
"(.	c #848484",
"_.	c #D6D6D6",
":.	c #CACACA",
"<.	c #9A9A9A",
"[.	c #9B9B9B",
"}.	c #5F5F5F",
"|.	c #454545",
"1.	c #B0B0B0",
"2.	c #B4B4B4",
"3.	c #5A5A5A",
"4.	c #B8B8B8",
"5.	c #666666",
"6.	c #A4A4A4",
"7.	c #D9D9D9",
"8.	c #CCCCCC",
"9.	c #D7D7D7",
"0.	c #B2B2B2",
"a.	c #0D0D0D",
"b.	c #898989",
"c.	c #E0E0E0",
"d.	c #7E7E7E",
"e.	c #606060",
"f.	c #E6E6E6",
"g.	c #D1D1D1",
"h.	c #A0A0A0",
"i.	c #C9C9C9",
"j.	c #6E6E6E",
"k.	c #696969",
"l.	c #797979",
"m.	c #6A6A6A",
"n.	c #D8D8D8",
"o.	c #C7C7C7",
"  . + @ # $ % # & & *   = - ; & > , . ' ) ! $ = ",
"~ { ] ^ / % % ( & & _ $ : . < [ } ~ . | 1 ) 2 = ",
"3 4 5 6 7 : $ 8 & & 9 : ~ 0 a ] 5 b 2 c & d - = ",
"b 8 e f g = $ 4 & & h $ 2 4 5 i 7 % ~ j & k + = ",
"l | & k m     n ( & o $ p d d @ < q : r & s t q ",
"u v & & w $ , x y # w $ i z & z A $ = y ( 1 B q ",
"^ C & & D : ~ E 3 F G : H I & & c ~ q J y K t q ",
"l L & & M   l N O P Q   2 c & & | R b S x T g q ",
"$ t * & U : P } ( V . = $ 9 & & v J R W F X u q ",
"~ H i Y [   X > & > Z q = B k & c l 2 ( ' ` ~ = ",
"P  ...+.`   R @.& & #.  = b $.C c l %.&.& j < q ",
"+.| *.=.J q +.} & & -.$ q 2 3 V ;.J Q I & >. .~ ",
"7 } >.,.'.= % ).& & !.J q ~.{.x Z x i d & >.].3 ",
"7 e & ^./.=   ~.(.& !.l q _.w :.3 , 2 } & ^.<.X ",
"H I & & ,.  x u '.[.) : = + C }.O $ R m & ^./.X ",
"7 |.& & 9 q P 1.- H 2., = + e & 3.P % ..Y >.[.X ",
": 4.5.& 5.  X | @ + 3 b q =.I & >.=.X ^ +./ 6.J ",
"b 3 E * 5.: +.d } ).7.  q 8.1 & } Q u /.9.P =.  ",
"a O . i 0.: 2 >.a.>.* ~ = P b.& d c.7 e d.t ~ q ",
"+.;.1...P q +.z & & r 2 = $ g [.z c.3 e >.9 . = ",
"7 z C *.i = J e.& & e.X q +.f.p 6.X ~ j & z g.= ",
"H s & >.h.= q i.; & j., q =.].< P x % ' & s ! q ",
"%.>.& & k.$ b . g [.l.: q ! &.U S $ X m.& } n.q ",
"u s & & r $ 2 n ] H 0 $   0 1 1 _ X : o.).d + q "};
